<svg xmlns="http://www.w3.org/2000/svg" width="74" height="74" viewBox="0 0 74 74" fill="none">
  <path d="M50.6823 42.0997C35.927 47.0721 31.0627 52.6086 27.4659 66.3983C23.869 52.6086 19.0048 47.0721 4.24948 42.0997C19.0048 37.1276 23.869 31.5911 27.4659 17.8013C31.0627 31.5911 35.927 37.1276 50.6823 42.0997Z" stroke="#242424" stroke-width="3" stroke-linecap="round" stroke-linejoin="round"/>
  <path d="M68.987 19.0966C60.6637 21.8901 57.9202 25.0008 55.891 32.7482C53.8622 25.0008 51.1184 21.8901 42.7954 19.0966C51.1184 16.3031 53.8622 13.1923 55.891 5.44482C57.9202 13.1923 60.6637 16.3031 68.987 19.0966Z" stroke="#242424" stroke-width="3" stroke-linecap="round" stroke-linejoin="round"/>
  <path d="M70.0688 59.3714C63.9084 61.3955 61.8775 63.6497 60.3756 69.2637C58.8739 63.6497 56.843 61.3955 50.6823 59.3714C56.843 57.347 58.8739 55.093 60.3756 49.479C61.8775 55.093 63.9084 57.347 70.0688 59.3714Z" stroke="#242424" stroke-width="3" stroke-linecap="round" stroke-linejoin="round"/>
</svg>