<svg xmlns="http://www.w3.org/2000/svg" width="74" height="74" viewBox="0 0 74 74" fill="none">
  <path d="M71.4452 39.9951C71.4452 41.5838 70.8141 43.1075 69.6906 44.231C68.5671 45.3545 67.0434 45.9856 65.4547 45.9856H8.54523C6.95646 45.9856 5.43275 45.3545 4.30933 44.231C3.18589 43.1075 2.55475 41.5838 2.55475 39.9951V34.0046C2.55475 32.416 3.18589 30.8922 4.30933 29.7687C5.43275 28.6453 6.95646 28.0142 8.54523 28.0142H65.4547C67.0434 28.0142 68.5671 28.6453 69.6906 29.7687C70.8141 30.8922 71.4452 32.416 71.4452 34.0046V39.9951Z" stroke="#242424" stroke-width="3" stroke-linecap="round" stroke-linejoin="round"/>
  <path d="M71.4452 22.0239C71.4452 23.6127 70.8141 25.1364 69.6906 26.2598C68.5671 27.3833 67.0434 28.0144 65.4547 28.0144H8.54523C6.95646 28.0144 5.43275 27.3833 4.30933 26.2598C3.18589 25.1364 2.55475 23.6127 2.55475 22.0239V16.0334C2.55475 14.4447 3.18589 12.921 4.30933 11.7975C5.43275 10.6741 6.95646 10.043 8.54523 10.043H65.4547C67.0434 10.043 68.5671 10.6741 69.6906 11.7975C70.8141 12.921 71.4452 14.4447 71.4452 16.0334V22.0239Z" stroke="#242424" stroke-width="3" stroke-linecap="round" stroke-linejoin="round"/>
  <path d="M15.2845 19.7774C14.871 19.7774 14.5357 19.4421 14.5357 19.0286C14.5357 18.615 14.871 18.2798 15.2845 18.2798" stroke="#242424" stroke-width="3"/>
  <path d="M15.2845 19.7774C15.6981 19.7774 16.0334 19.4421 16.0334 19.0286C16.0334 18.615 15.6981 18.2798 15.2845 18.2798" stroke="#242424" stroke-width="3"/>
  <path d="M25.7679 19.7774C25.3543 19.7774 25.019 19.4421 25.019 19.0286C25.019 18.615 25.3543 18.2798 25.7679 18.2798" stroke="#242424" stroke-width="3"/>
  <path d="M25.7679 19.7774C26.1814 19.7774 26.5167 19.4421 26.5167 19.0286C26.5167 18.615 26.1814 18.2798 25.7679 18.2798" stroke="#242424" stroke-width="3"/>
  <path d="M15.2845 37.7486C14.871 37.7486 14.5357 37.4134 14.5357 36.9998C14.5357 36.5861 14.871 36.251 15.2845 36.251" stroke="#242424" stroke-width="3"/>
  <path d="M15.2845 37.7486C15.6981 37.7486 16.0334 37.4134 16.0334 36.9998C16.0334 36.5861 15.6981 36.251 15.2845 36.251" stroke="#242424" stroke-width="3"/>
  <path d="M15.2845 55.7203C14.871 55.7203 14.5357 55.3851 14.5357 54.9715C14.5357 54.5578 14.871 54.2227 15.2845 54.2227" stroke="#242424" stroke-width="3"/>
  <path d="M15.2845 55.7203C15.6981 55.7203 16.0334 55.3851 16.0334 54.9715C16.0334 54.5578 15.6981 54.2227 15.2845 54.2227" stroke="#242424" stroke-width="3"/>
  <path d="M25.7679 37.7486C25.3543 37.7486 25.019 37.4134 25.019 36.9998C25.019 36.5861 25.3543 36.251 25.7679 36.251" stroke="#242424" stroke-width="3"/>
  <path d="M25.7679 37.7486C26.1814 37.7486 26.5167 37.4134 26.5167 36.9998C26.5167 36.5861 26.1814 36.251 25.7679 36.251" stroke="#242424" stroke-width="3"/>
  <path d="M25.7679 55.7203C25.3543 55.7203 25.019 55.3851 25.019 54.9715C25.019 54.5578 25.3543 54.2227 25.7679 54.2227" stroke="#242424" stroke-width="3"/>
  <path d="M25.7679 55.7203C26.1814 55.7203 26.5167 55.3851 26.5167 54.9715C26.5167 54.5578 26.1814 54.2227 25.7679 54.2227" stroke="#242424" stroke-width="3"/>
  <path d="M71.4452 57.9668C71.4452 59.5555 70.8141 61.0791 69.6906 62.2027C68.5671 63.3262 67.0434 63.9573 65.4547 63.9573H8.54523C6.95646 63.9573 5.43275 63.3262 4.30933 62.2027C3.18589 61.0791 2.55475 59.5555 2.55475 57.9668V51.9763C2.55475 50.3876 3.18589 48.864 4.30933 47.7405C5.43275 46.6169 6.95646 45.9858 8.54523 45.9858H65.4547C67.0434 45.9858 68.5671 46.6169 69.6906 47.7405C70.8141 48.864 71.4452 50.3876 71.4452 51.9763V57.9668Z" stroke="#242424" stroke-width="3" stroke-linecap="round" stroke-linejoin="round"/>
</svg>