<svg xmlns="http://www.w3.org/2000/svg" width="74" height="74" viewBox="0 0 74 74" fill="none">
  <path d="M5.9375 12.6528V35.2544C6.02301 42.7212 8.4018 49.9812 12.7516 56.0508C17.1013 62.1203 23.2118 66.706 30.255 69.1865L33.5683 70.3994C35.7812 71.2275 38.2188 71.2275 40.4317 70.3994L43.745 69.1865C50.7882 66.706 56.8987 62.1203 61.2484 56.0508C65.5982 49.9812 67.977 42.7212 68.0625 35.2544V12.6528C68.0582 11.7692 67.7954 10.9063 67.3065 10.1703C66.8176 9.43437 66.124 8.85759 65.3112 8.51111C56.347 4.76602 46.7146 2.88383 37 2.97903C27.2854 2.88383 17.653 4.76602 8.68875 8.51111C7.87598 8.85759 7.18238 9.43437 6.69349 10.1703C6.2046 10.9063 5.9418 11.7692 5.9375 12.6528Z" stroke="#242424" stroke-width="3" stroke-linecap="round" stroke-linejoin="round"/>
  <path d="M26.6458 26.646H47.3542C47.3542 26.646 50.3125 26.646 50.3125 29.6043V47.3543C50.3125 47.3543 50.3125 50.3127 47.3542 50.3127H26.6458C26.6458 50.3127 23.6875 50.3127 23.6875 47.3543V29.6043C23.6875 29.6043 23.6875 26.646 26.6458 26.646Z" stroke="#242424" stroke-width="3" stroke-linecap="round" stroke-linejoin="round"/>
  <path d="M33.3021 38.4792C33.3021 39.4599 33.6917 40.4005 34.3852 41.094C35.0787 41.7875 36.0193 42.1771 37 42.1771C37.9808 42.1771 38.9214 41.7875 39.6149 41.094C40.3084 40.4005 40.698 39.4599 40.698 38.4792C40.698 37.4984 40.3084 36.5578 39.6149 35.8643C38.9214 35.1709 37.9808 34.7813 37 34.7812C36.0193 34.7813 35.0787 35.1709 34.3852 35.8643C33.6917 36.5578 33.3021 37.4984 33.3021 38.4792Z" stroke="#242424" stroke-width="3" stroke-linecap="round" stroke-linejoin="round"/>
  <path d="M44.3958 22.2083C44.3958 20.2468 43.6166 18.3657 42.2296 16.9787C40.8426 15.5917 38.9615 14.8125 37 14.8125C35.0385 14.8125 33.1573 15.5917 31.7703 16.9787C30.3833 18.3657 29.6041 20.2468 29.6041 22.2083V26.6458H44.3958V22.2083Z" stroke="#242424" stroke-width="3" stroke-linecap="round" stroke-linejoin="round"/>
</svg>