<svg xmlns="http://www.w3.org/2000/svg" width="74" height="74" viewBox="0 0 74 74" fill="none">
<path d="M26.7938 48.0938H9.63542C6.38125 48.0938 3.71875 45.4312 3.71875 42.1771V9.63542C3.71875 6.38125 6.38125 3.71875 9.63542 3.71875H56.9688C60.2229 3.71875 62.8854 6.38125 62.8854 9.63542V26.7938" stroke="#242424" stroke-width="3" stroke-miterlimit="10" stroke-linecap="round" stroke-linejoin="round"/>
<path d="M20.8772 13.186V26.7809" stroke="#242424" stroke-width="3" stroke-miterlimit="10" stroke-linecap="round" stroke-linejoin="round"/>
<path d="M20.8772 32.8828V36.8529" stroke="#242424" stroke-width="3" stroke-miterlimit="10" stroke-linecap="round" stroke-linejoin="round"/>
<path d="M43.0646 23.0137V30.936" stroke="#242424" stroke-width="3" stroke-miterlimit="10" stroke-linecap="round" stroke-linejoin="round"/>
<path d="M43.0646 13.186V16.9121" stroke="#242424" stroke-width="3" stroke-miterlimit="10" stroke-linecap="round" stroke-linejoin="round"/>
<path d="M57.5072 36.852L58.6905 40.6978C58.9863 42.177 60.4655 42.7686 61.9447 42.4728L65.7905 41.5853C69.3405 40.6978 71.7072 44.8395 69.3405 47.502L66.678 50.4603C65.7905 51.6436 65.7905 53.1228 66.678 54.0103L69.3405 56.9686C71.7072 59.6311 69.3405 63.7728 65.7905 62.8853L61.9447 61.9978C60.4655 61.702 59.2822 62.5895 58.6905 63.7728L57.5072 67.6186C56.3238 71.1686 51.5905 71.1686 50.703 67.6186L49.5197 63.7728C49.2238 62.2936 47.7447 61.702 46.2655 61.9978L42.4197 62.8853C38.8697 63.7728 36.503 59.6311 38.8697 56.9686L41.5322 54.0103C42.4197 52.827 42.4197 51.3478 41.5322 50.4603L38.8697 47.502C36.503 44.8395 38.8697 40.6978 42.4197 41.5853L46.2655 42.4728C47.7447 42.7686 48.928 41.8811 49.5197 40.6978L50.703 36.852C51.5905 33.302 56.3238 33.302 57.5072 36.852Z" stroke="#242424" stroke-width="3" stroke-miterlimit="10" stroke-linecap="round" stroke-linejoin="round"/>
<path d="M54.1051 56.4332C56.4235 56.4332 58.3027 54.5541 58.3027 52.2357C58.3027 49.9175 56.4235 48.0381 54.1051 48.0381C51.7869 48.0381 49.9075 49.9175 49.9075 52.2357C49.9075 54.5541 51.7869 56.4332 54.1051 56.4332Z" stroke="#242424" stroke-width="3" stroke-miterlimit="10" stroke-linecap="round" stroke-linejoin="round"/>
<path d="M26.9786 30.8483C26.9786 32.0686 26.1651 32.8822 24.9449 32.8822H16.8098C15.5895 32.8822 14.776 32.0686 14.776 30.8483V28.8145C14.776 27.5943 15.5895 26.7808 16.8098 26.7808H24.9449C26.1651 26.7808 26.9786 27.5943 26.9786 28.8145V30.8483Z" stroke="#242424" stroke-width="3" stroke-miterlimit="10" stroke-linecap="round" stroke-linejoin="round"/>
<path d="M49.1662 20.9796C49.1662 22.1999 48.3526 23.0134 47.1323 23.0134H38.9972C37.7772 23.0134 36.9636 22.1999 36.9636 20.9796V18.9459C36.9636 17.7256 37.7772 16.9121 38.9972 16.9121H47.1323C48.3526 16.9121 49.1662 17.7256 49.1662 18.9459V20.9796Z" stroke="#242424" stroke-width="3" stroke-miterlimit="10" stroke-linecap="round" stroke-linejoin="round"/>
</svg>