<svg xmlns="http://www.w3.org/2000/svg" width="50" height="50" viewBox="0 0 77 76" fill="none">
    <path d="M34.1753 10.8594L23.8903 47.7737L20.462 33.9308C24.9292 33.9308 28.5653 35.2126 31.3703 37.776C34.1753 40.3395 35.5778 43.8772 35.5778 48.3889C35.5778 52.7981 34.1233 56.387 31.2145 59.1556C28.4095 61.8216 24.8772 63.1546 20.6178 63.1546C16.2545 63.1546 12.6183 61.8216 9.70945 59.1556C6.90445 56.387 5.50195 52.7981 5.50195 48.3889C5.50195 47.0559 5.60584 45.7741 5.81362 44.5437C6.0214 43.2107 6.43695 41.6726 7.06029 39.9294C7.68362 38.1862 8.56668 35.8791 9.70945 33.0079L18.7478 10.8594L34.1753 10.8594ZM70.952 10.8594L60.667 47.7737L57.2386 33.9308C61.7058 33.9308 65.342 35.2126 68.147 37.776C70.952 40.3395 72.3545 43.8772 72.3545 48.3889C72.3545 52.7981 70.9 56.387 67.9911 59.1556C65.1861 61.8216 61.6539 63.1546 57.3945 63.1546C53.0311 63.1546 49.395 61.8216 46.4861 59.1556C43.6811 56.387 42.2786 52.7981 42.2786 48.3889C42.2786 47.0559 42.3825 45.7741 42.5903 44.5437C42.7981 43.2107 43.2136 41.6726 43.837 39.9294C44.4603 38.1862 45.3433 35.8791 46.4861 33.0079L55.5245 10.8594L70.952 10.8594Z" fill="#DE161B"/>
</svg>