
<svg xmlns="http://www.w3.org/2000/svg" width="74" height="74" viewBox="0 0 74 74" fill="none">
  <g clip-path="url(#clip0_973_1238)">
    <path d="M37 57C42.3043 57 47.3914 54.8929 51.1421 51.1421C54.8929 47.3914 57 42.3043 57 37C57 31.6957 54.8929 26.6086 51.1421 22.8579C47.3914 19.1071 42.3043 17 37 17C31.6957 17 26.6086 19.1071 22.8579 22.8579C19.1071 26.6086 17 31.6957 17 37C17 42.3043 19.1071 47.3914 22.8579 51.1421C26.6086 54.8929 31.6957 57 37 57Z" stroke="#242424" stroke-width="3" stroke-linecap="round" stroke-linejoin="round"/>
    <path d="M36.5 43C37.9587 43 39.3576 42.4205 40.3891 41.3891C41.4205 40.3576 42 38.9587 42 37.5C42 36.0413 41.4205 34.6424 40.3891 33.6109C39.3576 32.5795 37.9587 32 36.5 32C35.0413 32 33.6424 32.5795 32.6109 33.6109C31.5795 34.6424 31 36.0413 31 37.5C31 38.9587 31.5795 40.3576 32.6109 41.3891C33.6424 42.4205 35.0413 43 36.5 43Z" stroke="#242424" stroke-width="3" stroke-linecap="round" stroke-linejoin="round"/>
    <path d="M37 72C56.33 72 72 56.33 72 37C72 17.67 56.33 2 37 2C17.67 2 2 17.67 2 37C2 56.33 17.67 72 37 72Z" stroke="#242424" stroke-width="3" stroke-linecap="round" stroke-linejoin="round"/>
  </g>
  <defs>
    <clipPath id="clip0_973_1238">
      <rect width="74" height="74" fill="white"/>
    </clipPath>
  </defs>
</svg>